<svg width="66" height="66" viewBox="0 0 66 66" fill="none" xmlns="http://www.w3.org/2000/svg">
<path d="M0 0H61C63.7614 0 66 2.23858 66 5V61C66 63.7614 63.7614 66 61 66H0V0Z" fill="#375B26" fill-opacity="0.38"/>
<path d="M51.4307 31.7764L31.9255 15.1972C31.7757 15.0708 31.5847 15 31.3834 15H26.8142C26.4322 15 26.2566 15.4652 26.5457 15.7079L44.6261 31.0787H14.413C14.1859 31.0787 14 31.2607 14 31.4831V34.5169C14 34.7393 14.1859 34.9213 14.413 34.9213H44.6209L26.5406 50.2921C26.2515 50.5399 26.427 51 26.8091 51H31.5331C31.6312 51 31.7293 50.9646 31.8015 50.8989L51.4307 34.2236C51.6095 34.0714 51.7528 33.8834 51.851 33.6723C51.9492 33.4612 52 33.232 52 33C52 32.768 51.9492 32.5388 51.851 32.3277C51.7528 32.1166 51.6095 31.9286 51.4307 31.7764Z" fill="white"/>
</svg>
