<svg width="66" height="66" viewBox="0 0 66 66" fill="none" xmlns="http://www.w3.org/2000/svg">
<path d="M0 5C0 2.23858 2.23858 0 5 0H66V66H5C2.23858 66 0 63.7614 0 61V5Z" fill="#F1D44B" fill-opacity="0.5"/>
<path d="M14.5693 31.7764L34.0745 15.1972C34.2243 15.0708 34.4153 15 34.6166 15H39.1858C39.5678 15 39.7434 15.4652 39.4543 15.7079L21.3739 31.0787H51.587C51.8141 31.0787 52 31.2607 52 31.4831V34.5169C52 34.7393 51.8141 34.9213 51.587 34.9213H21.3791L39.4594 50.2921C39.7485 50.5399 39.573 51 39.1909 51H34.4669C34.3688 51 34.2707 50.9646 34.1985 50.8989L14.5693 34.2236C14.3905 34.0714 14.2472 33.8834 14.149 33.6723C14.0508 33.4612 14 33.232 14 33C14 32.768 14.0508 32.5388 14.149 32.3277C14.2472 32.1166 14.3905 31.9286 14.5693 31.7764Z" fill="white"/>
</svg>
