<svg width="164" height="164" viewBox="0 0 164 164" fill="none" xmlns="http://www.w3.org/2000/svg">
<circle cx="82" cy="82" r="82" fill="#F1D44B" fill-opacity="0.4"/>
<path d="M45.4023 57.8594C48.8711 57.8594 51.7539 58.9609 54.0508 61.1641C56.3945 63.3203 57.5664 66.25 57.5664 69.9531C57.5664 71.4531 57.3789 72.9297 57.0039 74.3828C56.6289 75.8359 55.9023 77.3828 54.8242 79.0234C53.793 80.6172 52.9258 81.9297 52.2227 82.9609C51.5195 83.9453 50.2305 85.375 48.3555 87.25C46.4805 89.125 45.1914 90.3906 44.4883 91.0469C43.832 91.6562 42.332 93.0391 39.9883 95.1953C39.8945 95.2891 39.8711 95.4297 39.918 95.6172C39.9648 95.7578 40.082 95.8281 40.2695 95.8281H52.293C53.2773 95.8281 54.1211 95.6641 54.8242 95.3359C55.5273 94.9609 56.0898 94.3984 56.5117 93.6484C56.9336 92.8984 57.2383 92.2656 57.4258 91.75C57.6133 91.2344 57.8242 90.5078 58.0586 89.5703C58.1523 89.2422 58.5508 89.0781 59.2539 89.0781C59.957 89.0781 60.4961 89.2188 60.8711 89.5C59.9336 93.4844 59.0195 97.6562 58.1289 102.016C58.0352 102.672 57.7539 103 57.2852 103H31.5508C31.0352 102.438 30.7539 101.664 30.707 100.68C35.207 95.7109 39.168 90.4375 42.5898 84.8594C46.0117 79.2344 47.7227 74.7109 47.7227 71.2891C47.7227 69.2734 47.1836 67.5156 46.1055 66.0156C45.0273 64.4688 43.5742 63.6953 41.7461 63.6953C40.5742 63.6953 39.4727 63.9531 38.4414 64.4688C37.457 64.9375 36.7305 65.4297 36.2617 65.9453C35.793 66.4609 35.3242 67.0469 34.8555 67.7031L34.1523 68.6875C33.7773 68.6875 33.332 68.5234 32.8164 68.1953C32.3477 67.8203 32.1133 67.3984 32.1133 66.9297C32.4883 66.0859 32.9805 65.2422 33.5898 64.3984C34.1992 63.5078 35.0195 62.5234 36.0508 61.4453C37.1289 60.3672 38.4648 59.5 40.0586 58.8438C41.6992 58.1875 43.4805 57.8594 45.4023 57.8594ZM74.2305 81.0625C74.2305 86.4531 74.8633 90.8828 76.1289 94.3516C77.4414 97.8203 79.0117 99.5547 80.8398 99.5547C82.9023 99.5547 84.4258 97.8672 85.4102 94.4922C86.4414 91.1172 86.957 86.5234 86.957 80.7109C86.957 75.1328 86.418 70.7266 85.3398 67.4922C84.2617 64.2109 82.7617 62.5703 80.8398 62.5703C78.7773 62.5703 77.1602 64.2578 75.9883 67.6328C74.8164 71.0078 74.2305 75.4844 74.2305 81.0625ZM69.3086 96.6719C66.0273 92.3125 64.3867 87.1328 64.3867 81.1328C64.3867 75.1328 66.0273 69.9531 69.3086 65.5938C72.6367 61.2344 76.457 59.0547 80.7695 59.0547C85.0352 59.0547 88.7617 61.2344 91.9492 65.5938C95.1836 69.9062 96.8008 75.0859 96.8008 81.1328C96.8008 87.1797 95.1836 92.3828 91.9492 96.7422C88.7617 101.055 85.0352 103.211 80.7695 103.211C76.457 103.211 72.6367 101.031 69.3086 96.6719ZM110.441 81.0625C110.441 86.4531 111.074 90.8828 112.34 94.3516C113.652 97.8203 115.223 99.5547 117.051 99.5547C119.113 99.5547 120.637 97.8672 121.621 94.4922C122.652 91.1172 123.168 86.5234 123.168 80.7109C123.168 75.1328 122.629 70.7266 121.551 67.4922C120.473 64.2109 118.973 62.5703 117.051 62.5703C114.988 62.5703 113.371 64.2578 112.199 67.6328C111.027 71.0078 110.441 75.4844 110.441 81.0625ZM105.52 96.6719C102.238 92.3125 100.598 87.1328 100.598 81.1328C100.598 75.1328 102.238 69.9531 105.52 65.5938C108.848 61.2344 112.668 59.0547 116.98 59.0547C121.246 59.0547 124.973 61.2344 128.16 65.5938C131.395 69.9062 133.012 75.0859 133.012 81.1328C133.012 87.1797 131.395 92.3828 128.16 96.7422C124.973 101.055 121.246 103.211 116.98 103.211C112.668 103.211 108.848 101.031 105.52 96.6719Z" fill="white"/>
<path d="M54.2734 121.523C54.9453 121.523 55.5703 121.625 56.1484 121.828C56.7422 122.031 57.1562 122.227 57.3906 122.414C57.625 122.586 57.8047 122.75 57.9297 122.906C57.9297 124.344 57.5078 125.062 56.6641 125.062C56.0547 125.062 55.5938 124.672 55.2812 123.891C55.1406 123.531 54.9609 123.266 54.7422 123.094C54.5391 122.906 54.25 122.812 53.875 122.812C52.625 122.812 52 123.984 52 126.328C52 128.969 52.8828 130.289 54.6484 130.289C55.1641 130.289 55.6562 130.219 56.125 130.078C56.5938 129.922 56.9219 129.789 57.1094 129.68C57.2969 129.555 57.5469 129.375 57.8594 129.141C58 129.203 58.0703 129.352 58.0703 129.586C58.0703 129.773 58.0391 129.93 57.9766 130.055C57.8203 130.445 57.3516 130.898 56.5703 131.414C55.8047 131.914 54.9375 132.164 53.9688 132.164C52.4688 132.164 51.2109 131.641 50.1953 130.594C49.1797 129.531 48.6719 128.234 48.6719 126.703C48.6719 125.266 49.2109 124.047 50.2891 123.047C51.3828 122.031 52.7109 121.523 54.2734 121.523ZM61.2812 119.555C61.2812 118.82 61.2422 118.258 61.1641 117.867C61.0859 117.617 60.6797 117.492 59.9453 117.492H59.7344C59.6406 117.492 59.5938 117.336 59.5938 117.023C59.5938 116.758 59.6406 116.625 59.7344 116.625C60.2188 116.578 60.7031 116.516 61.1875 116.438C61.6875 116.359 62.1094 116.281 62.4531 116.203C62.7969 116.125 63.1016 116.047 63.3672 115.969C63.6484 115.891 63.8672 115.828 64.0234 115.781L64.2578 115.711H64.3047C64.3672 115.711 64.4297 115.758 64.4922 115.852C64.5547 115.945 64.5938 116.031 64.6094 116.109C64.4375 116.812 64.3516 117.602 64.3516 118.477L64.3281 128.508C64.3281 129.508 64.3828 130.219 64.4922 130.641C64.5234 130.75 64.7422 130.875 65.1484 131.016C65.5547 131.156 65.8281 131.227 65.9688 131.227C66.0156 131.227 66.0391 131.359 66.0391 131.625C66.0547 131.875 66.0469 132.031 66.0156 132.094C65.8438 132.078 65.3516 132.047 64.5391 132C63.7422 131.938 63.1641 131.906 62.8047 131.906C62.4297 131.906 61.8438 131.938 61.0469 132C60.25 132.047 59.7656 132.078 59.5938 132.094C59.5312 132.031 59.5 131.875 59.5 131.625C59.5 131.359 59.5312 131.227 59.5938 131.227C59.7656 131.227 60.0547 131.156 60.4609 131.016C60.8672 130.875 61.0859 130.75 61.1172 130.641C61.2266 130.172 61.2812 129.578 61.2812 128.859V119.555ZM71.6641 130.477C72.0703 130.477 72.3828 130.383 72.6016 130.195C72.8359 129.992 72.9531 129.75 72.9531 129.469V127.102C72.9219 127.117 72.7656 127.172 72.4844 127.266C72.2188 127.344 72.0469 127.398 71.9688 127.43C71.8906 127.461 71.7422 127.523 71.5234 127.617C71.3047 127.695 71.1484 127.773 71.0547 127.852C70.9766 127.914 70.875 128 70.75 128.109C70.625 128.219 70.5391 128.336 70.4922 128.461C70.4453 128.586 70.4219 128.727 70.4219 128.883C70.4219 129.445 70.5391 129.852 70.7734 130.102C71.0234 130.352 71.3203 130.477 71.6641 130.477ZM72.6016 121.477C73.6953 121.477 74.5312 121.781 75.1094 122.391C75.7031 122.984 76 124.07 76 125.648V129.445C76 129.977 76.1875 130.242 76.5625 130.242C76.8281 130.242 77.0938 130.141 77.3594 129.938C77.4688 130 77.5234 130.117 77.5234 130.289C77.5234 130.68 77.4688 130.969 77.3594 131.156C77.1406 131.359 76.7812 131.578 76.2812 131.812C75.7969 132.031 75.3359 132.141 74.8984 132.141C74.5234 132.141 74.1641 132.031 73.8203 131.812C73.4766 131.578 73.25 131.312 73.1406 131.016C73.125 131.016 73.0625 131.062 72.9531 131.156C72.8438 131.234 72.7031 131.328 72.5312 131.438C72.3594 131.547 72.1562 131.656 71.9219 131.766C71.7031 131.875 71.4375 131.969 71.125 132.047C70.8125 132.125 70.5 132.164 70.1875 132.164C69.3281 132.164 68.6406 131.93 68.125 131.461C67.625 130.977 67.375 130.375 67.375 129.656C67.375 129.234 67.4688 128.852 67.6562 128.508C67.8594 128.148 68.0859 127.859 68.3359 127.641C68.6016 127.406 68.9531 127.195 69.3906 127.008C69.8281 126.805 70.2031 126.656 70.5156 126.562C70.8281 126.453 71.2266 126.336 71.7109 126.211C72.2109 126.07 72.5547 125.969 72.7422 125.906C72.8828 125.859 72.9531 125.742 72.9531 125.555V124.711C72.9531 123.43 72.5625 122.789 71.7812 122.789C70.875 122.789 70.4219 123.312 70.4219 124.359C70.4219 124.703 70.2812 124.961 70 125.133C69.7188 125.289 69.4062 125.367 69.0625 125.367C68.3438 125.367 67.8516 125.133 67.5859 124.664C67.5859 123.867 68.1094 123.141 69.1562 122.484C70.2188 121.812 71.3672 121.477 72.6016 121.477ZM82.7969 121.477C84.1719 121.477 85.1875 121.633 85.8438 121.945C86 122.664 86.0781 123.633 86.0781 124.852C86.0781 124.992 85.9766 125.062 85.7734 125.062C85.2891 125.062 85.0312 125 85 124.875C84.8594 124.219 84.6172 123.703 84.2734 123.328C83.9453 122.953 83.4141 122.766 82.6797 122.766C82.3359 122.766 82.0547 122.852 81.8359 123.023C81.6172 123.18 81.5078 123.414 81.5078 123.727C81.5078 124.086 81.6641 124.398 81.9766 124.664C82.2891 124.914 82.75 125.188 83.3594 125.484C83.7812 125.688 84.1094 125.859 84.3438 126C84.5938 126.141 84.9141 126.367 85.3047 126.68C85.7109 126.977 86.0078 127.328 86.1953 127.734C86.3984 128.141 86.5 128.594 86.5 129.094C86.5 130.125 86.1016 130.906 85.3047 131.438C84.5234 131.969 83.5234 132.234 82.3047 132.234C81.7578 132.234 81.1484 132.148 80.4766 131.977C79.8047 131.805 79.3203 131.594 79.0234 131.344C78.8359 130.266 78.7422 129.312 78.7422 128.484C78.8047 128.438 78.9219 128.414 79.0938 128.414C79.5938 128.414 79.8516 128.484 79.8672 128.625C80.1328 130.172 80.9766 130.945 82.3984 130.945C82.7734 130.945 83.0859 130.859 83.3359 130.688C83.5859 130.516 83.7109 130.273 83.7109 129.961C83.7109 129.57 83.5391 129.242 83.1953 128.977C82.8672 128.711 82.2656 128.359 81.3906 127.922C80.4844 127.484 79.8125 127.008 79.375 126.492C78.9375 125.961 78.7188 125.312 78.7188 124.547C78.7188 123.484 79.125 122.711 79.9375 122.227C80.75 121.727 81.7031 121.477 82.7969 121.477ZM91.7969 121.477C93.1719 121.477 94.1875 121.633 94.8438 121.945C95 122.664 95.0781 123.633 95.0781 124.852C95.0781 124.992 94.9766 125.062 94.7734 125.062C94.2891 125.062 94.0312 125 94 124.875C93.8594 124.219 93.6172 123.703 93.2734 123.328C92.9453 122.953 92.4141 122.766 91.6797 122.766C91.3359 122.766 91.0547 122.852 90.8359 123.023C90.6172 123.18 90.5078 123.414 90.5078 123.727C90.5078 124.086 90.6641 124.398 90.9766 124.664C91.2891 124.914 91.75 125.188 92.3594 125.484C92.7812 125.688 93.1094 125.859 93.3438 126C93.5938 126.141 93.9141 126.367 94.3047 126.68C94.7109 126.977 95.0078 127.328 95.1953 127.734C95.3984 128.141 95.5 128.594 95.5 129.094C95.5 130.125 95.1016 130.906 94.3047 131.438C93.5234 131.969 92.5234 132.234 91.3047 132.234C90.7578 132.234 90.1484 132.148 89.4766 131.977C88.8047 131.805 88.3203 131.594 88.0234 131.344C87.8359 130.266 87.7422 129.312 87.7422 128.484C87.8047 128.438 87.9219 128.414 88.0938 128.414C88.5938 128.414 88.8516 128.484 88.8672 128.625C89.1328 130.172 89.9766 130.945 91.3984 130.945C91.7734 130.945 92.0859 130.859 92.3359 130.688C92.5859 130.516 92.7109 130.273 92.7109 129.961C92.7109 129.57 92.5391 129.242 92.1953 128.977C91.8672 128.711 91.2656 128.359 90.3906 127.922C89.4844 127.484 88.8125 127.008 88.375 126.492C87.9375 125.961 87.7188 125.312 87.7188 124.547C87.7188 123.484 88.125 122.711 88.9375 122.227C89.75 121.727 90.7031 121.477 91.7969 121.477ZM101.688 122.812C101.078 122.812 100.633 123.109 100.352 123.703C100.07 124.281 99.9297 124.852 99.9297 125.414C99.9297 125.508 99.9844 125.555 100.094 125.555H103.07C103.289 125.555 103.398 125.406 103.398 125.109C103.398 124.516 103.234 123.984 102.906 123.516C102.594 123.047 102.188 122.812 101.688 122.812ZM101.805 121.523C103.211 121.523 104.336 122.016 105.18 123C106.039 123.969 106.469 124.961 106.469 125.977C106.469 126.336 106.391 126.57 106.234 126.68C106.094 126.789 105.805 126.844 105.367 126.844H100.07C99.9766 126.844 99.9297 126.898 99.9297 127.008C99.9297 127.852 100.164 128.609 100.633 129.281C101.117 129.953 101.805 130.289 102.695 130.289C103.211 130.289 103.703 130.219 104.172 130.078C104.641 129.922 104.969 129.789 105.156 129.68C105.344 129.555 105.594 129.375 105.906 129.141C106.047 129.203 106.117 129.352 106.117 129.586C106.117 129.773 106.086 129.93 106.023 130.055C105.867 130.43 105.398 130.875 104.617 131.391C103.836 131.906 102.961 132.164 101.992 132.164C100.555 132.164 99.3125 131.641 98.2656 130.594C97.2344 129.547 96.7188 128.289 96.7188 126.82C96.7188 125.32 97.1875 124.062 98.125 123.047C99.0625 122.031 100.289 121.523 101.805 121.523ZM111.625 121.477C113 121.477 114.016 121.633 114.672 121.945C114.828 122.664 114.906 123.633 114.906 124.852C114.906 124.992 114.805 125.062 114.602 125.062C114.117 125.062 113.859 125 113.828 124.875C113.688 124.219 113.445 123.703 113.102 123.328C112.773 122.953 112.242 122.766 111.508 122.766C111.164 122.766 110.883 122.852 110.664 123.023C110.445 123.18 110.336 123.414 110.336 123.727C110.336 124.086 110.492 124.398 110.805 124.664C111.117 124.914 111.578 125.188 112.188 125.484C112.609 125.688 112.938 125.859 113.172 126C113.422 126.141 113.742 126.367 114.133 126.68C114.539 126.977 114.836 127.328 115.023 127.734C115.227 128.141 115.328 128.594 115.328 129.094C115.328 130.125 114.93 130.906 114.133 131.438C113.352 131.969 112.352 132.234 111.133 132.234C110.586 132.234 109.977 132.148 109.305 131.977C108.633 131.805 108.148 131.594 107.852 131.344C107.664 130.266 107.57 129.312 107.57 128.484C107.633 128.438 107.75 128.414 107.922 128.414C108.422 128.414 108.68 128.484 108.695 128.625C108.961 130.172 109.805 130.945 111.227 130.945C111.602 130.945 111.914 130.859 112.164 130.688C112.414 130.516 112.539 130.273 112.539 129.961C112.539 129.57 112.367 129.242 112.023 128.977C111.695 128.711 111.094 128.359 110.219 127.922C109.312 127.484 108.641 127.008 108.203 126.492C107.766 125.961 107.547 125.312 107.547 124.547C107.547 123.484 107.953 122.711 108.766 122.227C109.578 121.727 110.531 121.477 111.625 121.477Z" fill="white" fill-opacity="0.71"/>
</svg>
