<svg width="47" height="47" viewBox="0 0 47 47" fill="none" xmlns="http://www.w3.org/2000/svg">
<path d="M0 5C0 2.23858 2.23858 0 5 0L41.7228 0C44.4842 0 46.7228 2.23858 46.7228 5L46.7228 41.7228C46.7228 44.4842 44.4842 46.7228 41.7228 46.7228L5 46.7228C2.23858 46.7228 0 44.4842 0 41.7228L0 5Z" fill="#F1D44B" fill-opacity="0.5"/>
<path d="M10.3004 22.4949L24.0965 10.7581C24.2024 10.6686 24.3375 10.6185 24.4799 10.6185H27.7117C27.9819 10.6185 28.106 10.9478 27.9015 11.1196L15.1133 22.0009H36.483C36.6437 22.0009 36.7751 22.1298 36.7751 22.2873V24.4349C36.7751 24.5924 36.6437 24.7213 36.483 24.7213H15.117L27.9052 35.6026C28.1097 35.7779 27.9855 36.1037 27.7153 36.1037H24.374C24.3046 36.1037 24.2353 36.0786 24.1841 36.0321L10.3004 24.2273C10.174 24.1196 10.0726 23.9865 10.0032 23.837C9.93372 23.6876 9.89778 23.5253 9.89778 23.3611C9.89778 23.1969 9.93372 23.0346 10.0032 22.8852C10.0726 22.7357 10.174 22.6026 10.3004 22.4949Z" fill="white"/>
</svg>
