<svg width="47" height="47" viewBox="0 0 47 47" fill="none" xmlns="http://www.w3.org/2000/svg">
<path d="M46.7228 42C46.7228 44.7614 44.4842 47 41.7228 47L5.00001 47C2.23858 47 7.8251e-06 44.7614 8.06651e-06 42L1.12769e-05 5.27722C1.15183e-05 2.5158 2.23859 0.277225 5.00001 0.277226L41.7228 0.277229C44.4842 0.277229 46.7228 2.51581 46.7228 5.27723L46.7228 42Z" fill="#F1D44B" fill-opacity="0.5"/>
<path d="M36.4089 24.5052L22.6007 36.242C22.4948 36.3315 22.3595 36.3816 22.217 36.3816L18.9824 36.3816C18.7119 36.3816 18.5877 36.0523 18.7923 35.8805L31.5918 24.9992L10.2033 24.9992C10.0425 24.9992 9.91095 24.8703 9.91095 24.7128L9.91095 22.5652C9.91095 22.4077 10.0425 22.2789 10.2033 22.2789L31.5881 22.2789L18.7887 11.3976C18.584 11.2222 18.7083 10.8964 18.9787 10.8964L22.323 10.8964C22.3924 10.8964 22.4619 10.9215 22.513 10.968L36.4089 22.7728C36.5355 22.8806 36.6369 23.0136 36.7064 23.1631C36.776 23.3125 36.8119 23.4748 36.8119 23.639C36.8119 23.8032 36.776 23.9655 36.7064 24.115C36.6369 24.2644 36.5355 24.3975 36.4089 24.5052Z" fill="white"/>
</svg>
