<svg width="27" height="27" viewBox="0 0 27 27" fill="none" xmlns="http://www.w3.org/2000/svg">
<path d="M27 22C27 24.7614 24.7614 27 22 27L5 27C2.23857 27 -3.61899e-06 24.7614 -3.37758e-06 22L-1.8914e-06 4.99999C-1.64998e-06 2.23857 2.23858 -5.97941e-06 5 -5.738e-06L22 -4.25181e-06C24.7614 -4.0104e-06 27 2.23857 27 5L27 22Z" fill="#F1D44B" fill-opacity="0.5"/>
<path d="M21.0399 14.0006L13.0604 20.783C12.9992 20.8347 12.921 20.8636 12.8387 20.8636L10.9695 20.8636C10.8132 20.8636 10.7414 20.6734 10.8596 20.5741L18.2561 14.286L5.89626 14.286C5.80333 14.286 5.7273 14.2116 5.7273 14.1205L5.7273 12.8795C5.7273 12.7885 5.80333 12.714 5.89626 12.714L18.254 12.714L10.8575 6.42595C10.7393 6.3246 10.8111 6.13637 10.9674 6.13637L12.8999 6.13637C12.94 6.13637 12.9802 6.15085 13.0097 6.17774L21.0399 12.9994C21.113 13.0617 21.1716 13.1386 21.2118 13.225C21.252 13.3113 21.2728 13.4051 21.2728 13.5C21.2728 13.5949 21.252 13.6887 21.2118 13.775C21.1716 13.8614 21.113 13.9383 21.0399 14.0006Z" fill="white"/>
</svg>
