<svg width="46" height="46" viewBox="0 0 46 46" fill="none" xmlns="http://www.w3.org/2000/svg">
<path d="M45.4376 40.9738C45.4376 43.4622 43.4203 45.4795 40.9319 45.4795L4.88627 45.4795C2.39784 45.4795 0.380566 43.4622 0.380566 40.9738L0.380569 4.92814C0.380569 2.4397 2.39784 0.422432 4.88627 0.422432L40.9319 0.422435C43.4204 0.422436 45.4376 2.43971 45.4376 4.92814L45.4376 40.9738Z" fill="#F1D44B" fill-opacity="0.5"/>
<path d="M35.4914 23.7868L22.1755 35.1051C22.0733 35.1914 21.9429 35.2397 21.8054 35.2397L18.6862 35.2397C18.4253 35.2397 18.3055 34.9222 18.5029 34.7565L30.846 24.2631L10.2201 24.2631C10.065 24.2631 9.93811 24.1389 9.93811 23.987L9.93811 21.9159C9.93811 21.764 10.065 21.6398 10.2201 21.6398L30.8425 21.6398L18.4994 11.1464C18.302 10.9773 18.4218 10.6632 18.6826 10.6632L21.9076 10.6632C21.9746 10.6632 22.0416 10.6873 22.0909 10.7322L35.4914 22.1161C35.6134 22.22 35.7113 22.3484 35.7783 22.4925C35.8454 22.6366 35.88 22.7931 35.88 22.9515C35.88 23.1098 35.8454 23.2663 35.7783 23.4104C35.7113 23.5545 35.6134 23.6829 35.4914 23.7868Z" fill="white"/>
</svg>
