<svg width="46" height="46" viewBox="0 0 46 46" fill="none" xmlns="http://www.w3.org/2000/svg">
<path d="M0 4.92831C0 2.43988 2.01727 0.422607 4.5057 0.422607L40.5513 0.422607C43.0398 0.422607 45.0571 2.43988 45.0571 4.92831L45.0571 40.974C45.0571 43.4624 43.0398 45.4797 40.5514 45.4797L4.50571 45.4797C2.01727 45.4797 0 43.4624 0 40.974L0 4.92831Z" fill="#F1D44B" fill-opacity="0.5"/>
<path d="M9.94608 22.1153L23.262 10.797C23.3642 10.7107 23.4946 10.6624 23.6321 10.6624H26.7513C27.0122 10.6624 27.132 10.9799 26.9346 11.1456L14.5915 21.639H35.2174C35.3725 21.639 35.4994 21.7632 35.4994 21.9151V23.9862C35.4994 24.1381 35.3725 24.2623 35.2174 24.2623H14.595L26.9381 34.7557C27.1355 34.9248 27.0157 35.2389 26.7549 35.2389H23.5299C23.4629 35.2389 23.3959 35.2148 23.3466 35.1699L9.94608 23.786C9.82406 23.6821 9.72623 23.5537 9.65919 23.4096C9.59214 23.2655 9.55745 23.109 9.55745 22.9506C9.55745 22.7923 9.59214 22.6358 9.65919 22.4917C9.72623 22.3476 9.82406 22.2192 9.94608 22.1153Z" fill="white"/>
</svg>
